<svg width="64" height="64" viewBox="0 0 64 64" fill="none" xmlns="http://www.w3.org/2000/svg">
<path fill-rule="evenodd" clip-rule="evenodd" d="M32 0C14.3269 0 0 14.3269 0 32C0 49.6731 14.3269 64 32 64C49.6731 64 64 49.6731 64 32C64 14.3269 49.6731 0 32 0ZM31.9519 34.6924L19.9983 26.0153V44.3067H18.0012C16.8885 44.3067 16.0041 43.4223 16.0041 42.3096V22.0827C16.0041 21.998 16.0093 21.9185 16.0192 21.8441C16.0555 21.5268 16.1712 21.2163 16.3751 20.9415C17.0312 20.0571 18.3151 19.8573 19.228 20.5135L31.9804 29.7855L44.8184 20.3995C45.7028 19.7432 46.9581 19.9429 47.6143 20.8559C47.9631 21.326 48.07 21.9008 47.9565 22.4348V42.3381C47.9565 43.4223 47.0721 44.3067 45.9596 44.3067H43.9625V25.9717L31.9519 34.6924Z" fill="white"/>
</svg>
