<svg width="64" height="66" viewBox="0 0 64 66" fill="none" xmlns="http://www.w3.org/2000/svg">
<path d="M32 1.03125C14.874 1.03125 1 15.3409 1 33C1 50.6591 14.876 64.9688 32 64.9688C49.126 64.9688 63 50.6591 63 33C63 15.3409 49.124 1.03125 32 1.03125ZM47.226 22.9329L42.138 47.6582C41.762 49.4113 40.75 49.8362 39.338 49.0112L31.588 43.1207L27.85 46.8332C27.438 47.2581 27.088 47.619 26.288 47.619L26.838 39.4845L41.2 26.103C41.826 25.5358 41.062 25.2141 40.236 25.7812L22.486 37.3044L14.836 34.8418C13.174 34.3014 13.136 33.1279 15.186 32.3029L45.074 20.4167C46.462 19.9011 47.674 20.7653 47.224 22.9309L47.226 22.9329Z" fill="white"/>
</svg>
