<svg width="64" height="64" viewBox="0 0 64 64" fill="none" xmlns="http://www.w3.org/2000/svg">
<path fill-rule="evenodd" clip-rule="evenodd" d="M0 32C0 14.3269 14.3269 0 32 0C49.6731 0 64 14.3269 64 32C64 49.6731 49.6731 64 32 64C14.3269 64 0 49.6731 0 32ZM31.0416 26.01L31.1088 27.1173L29.9896 26.9817C25.9159 26.462 22.3569 24.6993 19.3351 21.7391L17.8579 20.2703L17.4773 21.3549C16.6715 23.7728 17.1863 26.3264 18.8651 28.0437C19.7604 28.9928 19.5589 29.1284 18.0145 28.5635C17.4773 28.3827 17.0072 28.2472 16.9625 28.3149C16.8059 28.4731 17.3431 30.5295 17.7683 31.3429C18.3503 32.4728 19.5365 33.5801 20.8348 34.2355L21.9316 34.7552L20.6333 34.7777C19.3799 34.7777 19.3351 34.8004 19.4695 35.2749C19.9171 36.7437 21.6853 38.3029 23.6551 38.9809L25.0429 39.4555L23.8341 40.1785C22.0435 41.218 19.9395 41.8056 17.8355 41.8508C16.8281 41.8733 16 41.9637 16 42.0316C16 42.2575 18.7308 43.5229 20.32 44.0201C25.0876 45.4889 30.7507 44.8563 35.0035 42.3479C38.0252 40.5627 41.0469 37.0149 42.4571 33.5801C43.2181 31.7497 43.9792 28.4053 43.9792 26.8009C43.9792 25.7615 44.0463 25.6259 45.2997 24.3829C46.0384 23.6599 46.7323 22.8689 46.8667 22.6429C47.0904 22.2136 47.0681 22.2136 45.9265 22.5977C44.024 23.2757 43.7553 23.1853 44.6955 22.1684C45.3893 21.4453 46.2175 20.1347 46.2175 19.7505C46.2175 19.6827 45.8817 19.7957 45.5012 19.9991C45.0984 20.2251 44.2031 20.564 43.5315 20.7675L42.3228 21.1516L41.226 20.4059C40.6217 19.9991 39.7711 19.5472 39.3235 19.4116C38.1819 19.0952 36.436 19.1404 35.4064 19.502C32.6084 20.5188 30.8401 23.1401 31.0416 26.01Z" fill="white"/>
</svg>
