<svg width="64" height="64" viewBox="0 0 64 64" fill="none" xmlns="http://www.w3.org/2000/svg">
<path fill-rule="evenodd" clip-rule="evenodd" d="M0 32C0 14.3269 14.3269 0 32 0C49.6731 0 64 14.3269 64 32C64 49.6731 49.6731 64 32 64C14.3269 64 0 49.6731 0 32ZM48.3533 24.0976C47.9608 22.5896 46.8041 21.4021 45.3355 20.9991C42.6739 20.2667 32 20.2667 32 20.2667C32 20.2667 21.3261 20.2667 18.6644 20.9991C17.1956 21.4021 16.0389 22.5896 15.6464 24.0976C14.9333 26.8307 14.9333 32.5333 14.9333 32.5333C14.9333 32.5333 14.9333 38.2357 15.6464 40.9691C16.0389 42.4771 17.1956 43.6645 18.6644 44.0677C21.3261 44.8 32 44.8 32 44.8C32 44.8 42.6739 44.8 45.3355 44.0677C46.8041 43.6645 47.9608 42.4771 48.3533 40.9691C49.0667 38.2357 49.0667 32.5333 49.0667 32.5333C49.0667 32.5333 49.0667 26.8307 48.3533 24.0976Z" fill="white"/>
<path fill-rule="evenodd" clip-rule="evenodd" d="M28.8 38.4V27.7333L37.3334 33.0668L28.8 38.4Z" fill="white"/>
</svg>
